# AST/ASF file generated using VICON BodyLanguage
# -----------------------------------------------
:version 1.10
:name VICON
:units
  mass 1.0
  length 0.45
  angle deg
:documentation
   .ast/.asf automatically generated from VICON data using
   VICON BodyBuilder and BodyLanguage model FoxedUp or BRILLIANT.MOD
:root
   order TX TY TZ RX RY RZ
   axis XYZ
   position 0 0 0  
   orientation 0 0 0 
:bonedata
  begin
     id 1 
     name lhipjoint
     direction 0.528046 -0.759594 0.379717 
     length 2.39752 
     axis 0 0 0  XYZ
  end
  begin
     id 2 
     name lfemur
     direction 0.34202 -0.939693 0  
     length 7.31175  
     axis 0 0 20  XYZ
    dof rx ry rz
    limits (-160.0 20.0)
           (-70.0 70.0)
           (-60.0 70.0)
  end
  begin
     id 3 
     name ltibia
     direction 0.34202 -0.939693 0   
     length 7.52482   
     axis 0 0 20   XYZ
    dof rx
    limits (-10.0 170.0)
  end
  begin
     id 4 
     name lfoot
     direction 0.0675379 -0.185559 0.980309   
     length 2.00961   
     axis -90 7.62852e-016 20   XYZ
    dof rx rz
    limits (-45.0 90.0)
           (-70.0 20.0)
  end
  begin
     id 5 
     name ltoes
     direction 1.5352e-011 -4.22286e-011 1   
     length 1.01383   
     axis -90 7.62852e-016 20   XYZ
    dof rx
    limits (-90.0 20.0)
  end
  begin
     id 6 
     name rhipjoint
     direction -0.510274 -0.769251 0.384544   
     length 2.36742  
     axis 0 0 0  XYZ 
  end
  begin
     id 7 
     name rfemur
     direction -0.34202 -0.939693 0   
     length 7.45325   
     axis 0 0 -20   XYZ
    dof rx ry rz
    limits (-160.0 20.0)
           (-70.0 70.0)
           (-70.0 60.0)
  end
  begin
     id 8 
     name rtibia
     direction -0.34202 -0.939693 0   
     length 7.49587   
     axis 0 0 -20   XYZ
    dof rx
    limits (-10.0 170.0)
 end
 begin
     id 9 
     name rfoot
     direction -0.106475 -0.292536 0.950308   
     length 2.20898  
     axis -90 -7.62852e-016 -20   XYZ
    dof rx rz
    limits (-45.0 90.0)
           (-20.0 70.0)
  end
  begin
     id 10 
     name rtoes
     direction -1.53597e-011 -4.22023e-011 1   
     length 1.10065   
     axis -90 -7.62852e-016 -20   XYZ
    dof rx
    limits (-90.0 20.0)
  end
  begin
     id 11 
     name lowerback
     direction 0.0260024 0.998026 -0.0571652   
     length 2.11214   
     axis 0 0 0   XYZ
    dof rx ry rz
    limits (-20.0 45.0)
           (-30.0 30.0)
           (-30.0 30.0)
  end
  begin
     id 12 
     name upperback
     direction 0.0216202 0.999542 -0.0211766   
     length 2.11689   
     axis 0 0 0   XYZ
    dof rx ry rz
    limits (-20.0 45.0)
           (-30.0 30.0)
           (-30.0 30.0)
  end
  begin
     id 13 
     name thorax
     direction 0.00883312 0.999944 0.00589057   
     length 2.11821   
     axis 0 0 0   XYZ
    dof rx ry rz
    limits (-20.0 45.0)
           (-30.0 30.0)
           (-30.0 30.0)
  end
  begin
     id 14 
     name lowerneck
     direction -0.059386 0.994433 0.0870401   
     length 1.81176   
     axis 0 0 0   XYZ
    dof rx ry rz
    limits (-20.0 45.0)
           (-30.0 30.0)
           (-30.0 30.0)
  end
  begin
     id 15 
     name upperneck
     direction 0.0506457 0.97328 -0.223967   
     length 1.82382   
     axis 0 0 0   XYZ
    dof rx ry rz
    limits (-20.0 45.0)
           (-30.0 30.0)
           (-30.0 30.0)
  end
  begin
     id 16
     name head
     direction 0.0205902 0.996147 -0.0852487  
     length 1.84805  
     axis 0 0 0   XYZ
    dof rx ry rz
    limits (-20.0 45.0)
           (-30.0 30.0)
           (-30.0 30.0)
  end
  begin
     id 17 
     name lclavicle
     direction 0.949493 0.303881 -0.0782325  
     length 3.60584  
     axis 0 0 0   XYZ
    dof ry rz
    limits (-20.0 10.0)
           (0.0 20.0)
  end
  begin
     id 18 
     name lhumerus
     direction 1 -4.48965e-011 1.48782e-027   
     length 4.95681   
     axis 180 -30 -90   XYZ
    dof rx ry rz
    limits (-60.0 90.0)
           (-90.0 90.0)
           (-90.0 90.0)
  end
  begin
     id 19
     name lradius
     direction 1 -4.48952e-011 2.06528e-027   
     length 3.40915   
     axis 180 -30 -90   XYZ
    dof rx
    limits (-10.0 170.0)
  end
  begin
     id 20
     name lwrist
     direction 1 -4.48964e-011 1.28021e-027   
     length 1.70457   
     axis -1.61767e-015 90 90   XYZ
    dof ry
    limits (-180.0 0.0)
 end
  begin
     id 21 
     name lhand
     direction 1 -4.49094e-011 2.54887e-027   
     length 0.616403   
     axis -1.63363e-015 90 90   XYZ
    dof rx rz
    limits (-90.0 90.0)
           (-45.0 45.0)
  end
  begin
     id 22 
     name lfingers
     direction 1 -4.49002e-011 5.11407e-027   
     length 0.49696   
     axis -3.26723e-015 90 90   XYZ
    dof rx
    limits (0.0 90.0)
  end
  begin
     id 23
     name lthumb
     direction 0.707107 -6.34998e-011 0.707107   
     length 0.713539   
     axis -90 45 -2.25915e-014   XYZ
    dof rx rz
    limits (-45.0 45.0)
           (-45.0 45.0)
  end
  begin
     id 24 
     name rclavicle
     direction -0.937751 0.334612 -0.0930482   
     length 3.46287  
     axis 0 0 0   XYZ 
    dof ry rz
    limits (-10.0 20.0)
           (-20.0 0.0)
  end
  begin
     id 25 
     name rhumerus
     direction -1 -4.48962e-011 3.59972e-027  
     length 5.352   
     axis 180 30 90   XYZ
    dof rx ry rz
    limits (-90.0 60.0)
           (-90.0 90.0)
           (-90.0 90.0)
  end
  begin
     id 26 
     name rradius
     direction -1 -4.48987e-011 -3.76925e-027   
     length 3.43721   
     axis 180 30 90   XYZ
    dof rx
    limits (-10.0 170.0)
  end
  begin
     id 27 
     name rwrist
     direction -1 -4.48943e-011 1.28112e-027   
     length 1.7186   
     axis -1.61767e-015 -90 -90   XYZ
    dof ry
    limits (-180.0 0.0)
  end
  begin
     id 28
     name rhand
     direction -1 -4.49027e-011 2.55483e-027   
     length 0.72009   
     axis -1.63363e-015 -90 -90   XYZ
    dof rx rz
    limits (-90.0 90.0)
           (-45.0 45.0)
  end
  begin
     id 29
     name rfingers
     direction -1 -4.48827e-011 5.14506e-027   
     length 0.580555   
     axis -3.26723e-015 -90 -90   XYZ
    dof rx
    limits (0.0 90.0)
  end
  begin
     id 30
     name rthumb
     direction -0.707107 -6.34936e-011 0.707107   
     length 0.833564   
     axis -90 -45 2.25915e-014   XYZ
    dof rx rz
    limits (-45.0 45.0)
           (-45.0 45.0)
  end
:hierarchy
  begin
    root lhipjoint rhipjoint lowerback
    lhipjoint lfemur
    lfemur ltibia
    ltibia lfoot
    lfoot ltoes
    rhipjoint rfemur
    rfemur rtibia
    rtibia rfoot
    rfoot rtoes
    lowerback upperback
    upperback thorax
    thorax lowerneck lclavicle rclavicle
    lowerneck upperneck
    upperneck head
    lclavicle lhumerus
    lhumerus lradius
    lradius lwrist
    lwrist lhand lthumb
    lhand lfingers
    rclavicle rhumerus
    rhumerus rradius
    rradius rwrist
    rwrist rhand rthumb
    rhand rfingers
  end

#!OML:ASF H:\Terrain\Patient Classification 1\Terrain2\Thursday\justin.ASF
:FULLY-SPECIFIED
:DEGREES
122
root 8.56659 17.4445 -18.0351 -0.447535 1.9778 -2.53253
lowerback 4.89577 -1.59813 2.23429
upperback 2.31856 -1.9997 3.93339
thorax -0.293195 -1.0043 2.89453
lowerneck -16.7409 -0.266477 -7.06472
upperneck 33.114 1.97664 -0.104969
head 14.0761 -0.057911 1.51607
rclavicle -3.77691e-015 1.27222e-014
rhumerus -34.4693 -12.6059 -75.7166
rradius 26.7192
rwrist -6.83769
rhand -19.1665 10.9115
rfingers 7.12502
rthumb 7.14438 -18.9479
lclavicle -3.77691e-015 1.27222e-014
lhumerus -34.0378 4.55883 84.7629
lradius 33.292
lwrist 1.83164
lhand -14.2213 24.1207
lfingers 7.12502
lthumb 11.9158 53.7616
rfemur -19.7396 -4.35499 27.2263
rtibia 28.9254
rfoot -8.45922 3.87265
rtoes 15.3896
lfemur -7.56235 1.38808 -14.4502
ltibia 56.3814
lfoot 23.2122 -18.4186
ltoes 14.8539
123
root 8.54637 17.4632 -17.9124 -0.706009 1.99846 -3.28835
lowerback 5.18612 -1.44912 2.96422
upperback 2.33962 -1.751 4.13143
thorax -0.456392 -0.875827 2.68625
lowerneck -16.8097 -0.303454 -6.93846
upperneck 33.2116 1.89487 -0.104513
head 14.1385 -0.0792173 1.483
rclavicle -3.43897e-014 1.82882e-014
rhumerus -34.4517 -12.0959 -75.9639
rradius 26.9012
rwrist -7.01068
rhand -19.7178 10.6852
rfingers 7.12502
rthumb 6.61224 -19.1916
lclavicle -3.43897e-014 1.82882e-014
lhumerus -34.1065 4.4018 84.928
lradius 32.4787
lwrist 1.32135
lhand -13.5592 23.9596
lfingers 7.12502
lthumb 12.5541 53.5624
rfemur -18.4887 -4.42022 28.1242
rtibia 27.9105
rfoot -8.54069 3.88532
rtoes 14.969
lfemur -9.38941 1.65851 -13.2978
ltibia 59.8017
lfoot 22.0669 -18.0707
ltoes 17.5
124
root 8.53038 17.4784 -17.7902 -1.01906 1.95747 -4.10197
lowerback 5.54342 -1.35934 3.67873
upperback 2.33857 -1.56971 4.44193
thorax -0.670034 -0.783192 2.60814
lowerneck -16.6966 -0.370075 -7.1013
upperneck 33.2105 1.83629 -0.0880865
head 14.1156 -0.120793 1.50746
rclavicle 1.21259e-014 7.15625e-015
rhumerus -34.4106 -11.6863 -75.9017
rradius 27.0189
rwrist -6.73892
rhand -20.1688 9.88998
rfingers 7.12502
rthumb 6.1769 -20
lclavicle 1.21259e-014 7.15625e-015
lhumerus -34.2764 4.77535 85.0663
lradius 31.7044
lwrist 0.554811
lhand -12.991 23.403
lfingers 7.12502
lthumb 13.1019 52.9715
rfemur -17.2117 -4.70251 29.0622
rtibia 26.9777
rfoot -8.49607 4.13671
rtoes 15.6825
lfemur -11.2218 2.1849 -12.0856
ltibia 63.1877
lfoot 20.0731 -17.3778
ltoes 18.7252
125
root 8.51823 17.4966 -17.6743 -1.27047 1.88812 -4.8985
lowerback 5.89617 -1.28803 4.44089
upperback 2.34911 -1.40486 4.70544
thorax -0.86859 -0.69935 2.45477
lowerneck -16.5994 -0.442428 -7.2373
upperneck 33.164 1.74241 -0.0247136
head 14.0762 -0.166509 1.54006
rclavicle -1.64991e-014 -8.74653e-015
rhumerus -34.3004 -11.2201 -75.9005
rradius 27.1697
rwrist -6.79173
rhand -20.2801 9.86197
rfingers 7.12502
rthumb 6.06942 -20.0311
lclavicle -1.64991e-014 -8.74653e-015
lhumerus -34.4757 5.1108 85.1423
lradius 31.1206
lwrist -0.149443
lhand -12.767 22.93
lfingers 7.12502
lthumb 13.3178 52.4845
rfemur -16.1087 -4.9826 29.9644
rtibia 26.1499
rfoot -8.50984 4.43345
rtoes 15.3319
lfemur -13.1918 2.89608 -10.9413
ltibia 66.5118
lfoot 17.2069 -16.4306
ltoes 16.8917
126
root 8.50772 17.5072 -17.5636 -1.47185 1.95844 -5.29014
lowerback 6.12803 -1.22075 4.86104
upperback 2.4453 -1.27705 4.8148
thorax -0.905114 -0.63356 2.3298
lowerneck -16.7164 -0.535903 -7.35961
upperneck 33.1737 1.62554 0.0715457
head 14.1103 -0.219031 1.58191
rclavicle 1.59028e-015 8.74653e-015
rhumerus -33.9412 -10.9572 -75.9858
rradius 27.275
rwrist -6.91051
rhand -19.896 10.9916
rfingers 7.12502
rthumb 6.44019 -18.8905
lclavicle 1.59028e-015 8.74653e-015
lhumerus -34.4512 5.35927 85.1615
lradius 30.4136
lwrist -0.696061
lhand -12.7884 22.0676
lfingers 7.12502
lthumb 13.2972 51.6233
rfemur -15.1476 -5.27848 30.4389
rtibia 25.4141
rfoot -8.57543 4.48562
rtoes 13.8686
lfemur -15.209 3.59834 -10.3074
ltibia 69.7912
lfoot 13.5617 -15.5039
ltoes 11.4459
